<svg width="182" height="54" viewBox="0 0 182 54" fill="none" xmlns="http://www.w3.org/2000/svg">
<g clip-path="url(#clip0_1_1256)">
<g clip-path="url(#clip1_1_1256)">
<mask id="mask0_1_1256" style="mask-type:luminance" maskUnits="userSpaceOnUse" x="0" y="-1" width="182" height="55">
<path d="M0 -0.00585938H181.854V53.7943H0V-0.00585938Z" fill="white"/>
</mask>
<g mask="url(#mask0_1_1256)">
<path d="M144.795 27.5373H146.822V40.3889H144.795V27.5373ZM142.254 40.3889H139.712L135.916 35.0329V40.3889H133.874V22.503H135.916V31.8481L139.278 27.5373H141.803L137.203 33.4405L142.254 40.3889ZM149.363 27.5373H156.489C157.566 27.5373 158.451 28.3897 158.515 29.4677V40.3889H156.489V30.0788C156.489 29.8053 156.264 29.564 155.974 29.564H151.905C151.631 29.564 151.39 29.7892 151.39 30.0788V40.3889H149.363V27.5373ZM168.15 37.8638C168.15 37.912 168.134 37.9442 168.134 37.9925C168.118 38.0568 168.086 38.1211 168.038 38.1533C167.941 38.2661 167.812 38.3464 167.635 38.3464H163.566C163.405 38.3464 163.26 38.2661 163.18 38.1533C163.132 38.1051 163.1 38.0407 163.1 37.9925C163.083 37.9442 163.083 37.8961 163.083 37.8316V30.0627C163.083 30.0144 163.1 29.9662 163.1 29.9018C163.116 29.8375 163.148 29.7731 163.18 29.7408C163.276 29.6284 163.405 29.548 163.566 29.548H167.635C167.796 29.548 167.941 29.6284 168.038 29.7408C168.086 29.7892 168.118 29.8536 168.134 29.9018C168.15 29.9499 168.15 29.9984 168.15 30.0627V37.8638ZM163.051 27.5373C161.974 27.5373 161.089 28.3897 161.025 29.4677V38.4751C161.073 39.5527 161.958 40.4051 163.051 40.4051H168.134V43.027C168.134 43.0752 168.118 43.1235 168.118 43.1879C168.102 43.252 168.07 43.3165 168.021 43.3487C167.925 43.4611 167.796 43.5417 167.619 43.5417H163.55C163.389 43.5417 163.244 43.4611 163.164 43.3487C163.116 43.3005 163.083 43.2361 163.083 43.1879C163.067 43.1396 163.067 43.0913 163.067 43.027V41.4505H161.041V43.6542C161.089 44.732 161.974 45.5844 163.067 45.5844H168.166C169.244 45.5844 170.129 44.732 170.193 43.6542V27.5695H163.051V27.5373ZM23.3551 22.503H25.3818V40.3889H23.3551V22.503ZM31.9765 33.0544V37.8638C31.9765 37.912 31.9928 37.9442 31.9928 37.9925C32.0087 38.0568 32.0409 38.1211 32.0731 38.1533C32.1696 38.2661 32.2981 38.3464 32.475 38.3464H36.0298V40.3889H31.9605C30.8826 40.3889 29.9981 39.5366 29.9337 38.4588V29.564H27.9072V27.5373H29.9337V22.5027H31.9605V27.5373H36.0298V29.564H31.9765V33.0544ZM20.8138 27.5373V40.3889H13.688C12.6104 40.3889 11.7258 39.5366 11.6614 38.4588V27.5373H13.688V37.8476C13.688 38.1211 13.9132 38.3624 14.2029 38.3624H18.2723C18.5458 38.3624 18.787 38.1372 18.787 37.8476V27.5373H20.8138ZM47.7073 27.5373V40.3889H40.5817C39.5041 40.3889 38.6195 39.5366 38.5552 38.4588V27.5373H40.5817V37.8476C40.5817 38.1211 40.8071 38.3624 41.0965 38.3624H45.166C45.4395 38.3624 45.6808 38.1372 45.6808 37.8476V27.5373H47.7073ZM7.10948 31.8481V30.0627C7.10948 30.0144 7.09337 29.9662 7.09337 29.9018C7.07726 29.8375 7.04505 29.7731 7.01283 29.7408C6.93262 29.6284 6.78781 29.548 6.62689 29.548H2.52538C2.36429 29.548 2.21965 29.6284 2.12316 29.7408C2.07501 29.7892 2.04262 29.8536 2.04262 29.9018C2.02668 29.9499 2.02668 29.9984 2.02668 30.0627V37.8476C2.02668 37.8961 2.04279 37.9442 2.04279 38.0085C2.0589 38.0729 2.09111 38.1372 2.12333 38.1694C2.21965 38.282 2.34835 38.3624 2.52521 38.3624H6.59467C6.75559 38.3624 6.90023 38.282 6.98078 38.1694C7.02911 38.1211 7.06133 38.0568 7.06133 38.0085C7.07726 37.9603 7.07726 37.912 7.07726 37.8476V36.0783H9.10411V38.4588C9.05579 39.5366 8.17115 40.3889 7.07726 40.3889H2.02668C0.949073 40.3889 0.0644369 39.5366 0 38.4588V29.4514C0.0483277 28.3738 0.932964 27.5212 2.02668 27.5212H7.12559C8.2032 27.5212 9.08783 28.3738 9.15227 29.4514V31.832H7.10948V31.8481ZM63.9529 30.0788C63.9529 30.0305 63.9692 29.9821 63.9692 29.918C63.9852 29.8536 64.0174 29.7892 64.0496 29.7571C64.1461 29.6445 64.2746 29.564 64.4518 29.564H68.5211C68.682 29.564 68.8267 29.6445 68.9071 29.7571C68.9556 29.8053 68.9874 29.8695 68.9874 29.918C69.0037 29.9662 69.0037 30.0144 69.0037 30.0788V32.7007C69.0037 32.7488 68.9874 32.797 68.9874 32.8614C68.9715 32.9257 68.9393 32.9901 68.9071 33.0222C68.8267 33.1347 68.682 33.2153 68.5211 33.2153H64.4518C64.2909 33.2153 64.1461 33.1347 64.0496 33.0222C64.0014 32.974 63.9692 32.9097 63.9692 32.8614C63.9529 32.8131 63.9529 32.781 63.9529 32.7327V30.0788ZM69.0359 35.2259C70.1135 35.2259 70.9983 34.3733 71.0624 33.2957V29.4514C71.0143 28.3738 70.1295 27.5212 69.0359 27.5212H63.937C62.8594 27.5212 61.9746 28.3738 61.9102 29.4514V38.4588C61.9587 39.5366 62.8431 40.3889 63.937 40.3889H69.0359C70.1135 40.3889 70.9983 39.5366 71.0624 38.4588V36.2551H69.0359V37.8316C69.0359 37.8798 69.0196 37.9281 69.0196 37.9925C69.0037 38.0568 68.9715 38.1211 68.9393 38.1533C68.8589 38.2661 68.7143 38.3464 68.5533 38.3464H64.4837C64.323 38.3464 64.1783 38.2661 64.0818 38.1533C64.0333 38.1051 64.0014 38.0407 64.0014 37.9925C63.9852 37.9442 63.9852 37.8961 63.9852 37.8316V35.2099L69.0359 35.2259ZM59.385 29.4514V32.0571H57.3583V30.0627C57.3583 30.0144 57.3422 29.9662 57.3422 29.9018C57.3261 29.8375 57.294 29.7731 57.2618 29.7408C57.1814 29.6284 57.0364 29.548 56.8757 29.548H52.8062C52.6455 29.548 52.5008 29.6284 52.4042 29.7408C52.3558 29.7892 52.3236 29.8536 52.3236 29.9018C52.3077 29.9499 52.3077 29.9984 52.3077 30.0627V40.3889H50.2808V27.5373H57.4064C58.452 27.5373 59.3368 28.3897 59.385 29.4514ZM144.795 22.503H146.822V24.5295H144.795V22.503ZM179.827 31.6551V30.0788C179.827 30.0305 179.812 29.9821 179.812 29.918C179.796 29.8536 179.764 29.7892 179.716 29.7571C179.618 29.6445 179.489 29.564 179.328 29.564H175.26C175.099 29.564 174.955 29.6445 174.857 29.7571C174.809 29.8053 174.777 29.8695 174.761 29.918C174.746 29.9662 174.746 30.0144 174.746 30.0788V31.1564C174.746 31.3333 174.842 31.4942 174.97 31.5907L175.003 31.6068L181.356 35.4029C181.508 35.4906 181.635 35.6172 181.722 35.7698C181.81 35.9224 181.855 36.0955 181.854 36.2714V38.4588C181.806 39.5366 180.922 40.3889 179.827 40.3889H174.729C173.651 40.3889 172.766 39.5366 172.703 38.4588V36.2551H174.729V37.8316C174.729 37.8798 174.746 37.9281 174.746 37.9925C174.761 38.0568 174.794 38.1211 174.842 38.1533C174.922 38.2661 175.066 38.3464 175.227 38.3464H179.297C179.459 38.3464 179.602 38.2661 179.698 38.1533C179.746 38.1051 179.779 38.0407 179.796 37.9925C179.812 37.9442 179.812 37.8961 179.812 37.8316V36.754C179.812 36.5609 179.716 36.4161 179.57 36.3196L179.554 36.3036L173.28 32.5397L173.121 32.4431H173.104C172.862 32.2503 172.703 31.9608 172.703 31.639V29.4355C172.751 28.3578 173.635 27.5053 174.729 27.5053H179.827C180.905 27.5053 181.789 28.3578 181.854 29.4355V31.639L179.827 31.6551ZM86.6318 29.6637C87.3401 29.8922 88.0714 30.2577 88.5512 31.1718C88.7111 31.4688 88.8254 31.7888 88.871 32.1086C89.1773 33.8723 90.2843 37.6004 93.4114 40.5035C95.6626 42.5933 98.5352 43.9314 100.898 44.3768C102.437 44.6669 104.578 44.5438 106.279 44.0217C108.096 43.4638 109.6 42.5108 110.663 41.6923C111.074 41.3724 112.178 40.3118 112.886 39.3063C113.549 38.3696 113.846 37.4327 113.96 37.0899C114.189 36.4502 114.303 35.5133 114.097 34.7364C114.006 34.4165 113.823 34.0965 113.572 33.9138C113.298 33.731 112.841 33.6396 112.475 33.7767C111.995 33.9366 111.561 34.3707 111.538 34.8735C111.47 37.4554 110.624 38.5295 109.779 39.4434C108.225 41.1116 105.874 41.6891 103.384 41.7424C103.012 41.7504 100.766 41.6534 99.1876 40.1447C97.7076 38.7296 97.061 35.8368 97.0057 35.6046C96.8458 34.9877 96.7087 34.3251 96.5944 33.6396C96.5486 33.3425 96.503 32.8856 96.48 32.4513C96.4115 31.3089 97.0514 30.1892 98.1253 29.7551C98.1938 29.7323 98.2624 29.6865 98.3539 29.6637C98.491 29.618 98.5138 29.4581 98.3995 29.3666C97.8511 29.001 97.1885 28.7954 96.48 28.7954H96.3887C96.3887 28.6811 96.3659 28.5897 96.3659 28.4754V28.2242C96.3659 27.2187 96.3887 25.3451 96.5716 23.5398C96.6629 22.6716 96.8686 21.2321 97.3712 20.0895C97.8511 18.9927 98.468 18.2615 98.9479 17.8731C99.8848 17.0505 101.21 16.6392 102.947 16.6392C104.249 16.6392 105.46 16.982 106.511 17.5532C106.877 17.7588 107.677 18.2844 108.453 19.1298C108.545 19.2212 108.613 19.3127 108.705 19.4268C109.208 20.0438 109.687 20.9579 110.007 21.8946C110.601 23.7912 111.515 24.3854 112.132 24.6138C112.292 24.6824 112.475 24.7281 112.658 24.7281H112.704C112.863 24.7281 113.024 24.7052 113.161 24.6366C113.412 24.5453 113.618 24.3854 113.778 24.1797C113.937 23.9511 114.052 23.6769 114.052 23.3799C114.052 22.9001 113.8 22.4888 113.435 22.2603C113.298 22.1688 113.229 22.0317 113.229 21.8718V15.2682C113.229 15.1311 113.115 15.0396 113.001 15.0396H111.538C111.401 15.0396 111.31 15.1539 111.31 15.2682L111.241 15.3824C110.967 15.8166 110.464 16.0679 109.939 15.9765C109.939 15.9765 109.749 15.9637 109.485 15.8696C109.31 15.807 109.083 15.708 108.872 15.6074C108.406 15.3855 107.888 15.155 107.819 15.132C107.522 15.0177 107.151 14.9025 106.671 14.7654C106.185 14.6088 105.689 14.4866 105.186 14.3999C105.116 14.3882 103.541 14.0597 101.255 14.3867C97.2807 14.9553 94.3694 16.8668 92.2894 19.3828C90.5572 21.4785 89.1019 24.7401 88.8482 28.3613V28.6811H88.8025C88.0942 28.6811 87.3173 28.8867 86.7689 29.2524C86.4718 29.4581 86.4947 29.618 86.6318 29.6637Z" fill="white"/>
<path d="M122.735 38.3924C122.689 38.4151 122.438 38.4837 122.209 38.6208C122.506 37.7526 122.735 36.8843 122.918 36.0159C123.055 36.2673 123.329 36.4502 123.649 36.473C124.037 36.4958 124.563 36.4502 125.088 36.0845C126.231 35.2848 127.19 33.7538 127.328 33.3654C126.665 33.6852 126.094 33.7995 125.545 33.9138C124.974 34.028 124.426 34.1423 123.74 34.485C123.694 34.5078 123.352 34.6679 123.1 34.9649C123.237 34.0965 123.306 33.2054 123.329 32.3372C123.512 32.5428 123.831 32.6342 124.129 32.5656C124.471 32.4971 124.951 32.2914 125.317 31.8344C126.139 30.8061 126.596 29.1609 126.619 28.7496C126.117 29.2295 125.637 29.4809 125.157 29.7323C124.677 29.9835 124.197 30.2349 123.672 30.7376C123.649 30.7605 123.466 30.9204 123.329 31.1489C123.306 30.2121 123.237 29.2524 123.123 28.3613C123.352 28.544 123.694 28.544 123.969 28.3841C124.266 28.2242 124.608 27.9042 124.814 27.3786C125.248 26.2133 125.202 24.6138 125.088 24.2483C124.768 24.8195 124.403 25.185 124.06 25.5735C123.694 25.9391 123.352 26.3048 123.032 26.9217C123.009 26.9445 122.963 27.0359 122.918 27.173C122.735 26.1219 122.506 25.0709 122.232 24.1112C122.483 24.2711 122.803 24.2253 123.055 24.0197C123.283 23.814 123.534 23.4942 123.603 23.0144C123.763 21.9404 123.443 20.5694 123.283 20.2724C123.1 20.8208 122.872 21.2091 122.643 21.5976C122.392 21.9861 122.163 22.3517 122.004 22.9458C122.004 22.9686 121.981 23.06 121.958 23.1743C121.608 22.0614 121.211 20.9637 120.77 19.8839C120.846 19.8323 120.91 19.7646 120.957 19.6857C121.005 19.6067 121.034 19.5184 121.044 19.4268C121.067 19.1756 121.044 18.8099 120.792 18.4671C120.267 17.6675 119.262 16.982 118.987 16.8677C119.193 17.3247 119.262 17.7131 119.33 18.0788C119.399 18.4671 119.467 18.8328 119.696 19.2897C119.718 19.3583 119.993 19.9524 120.473 19.9524C120.495 19.9524 120.518 19.9524 120.541 19.9296C120.747 20.4551 120.952 21.0035 121.135 21.5976C121.021 21.4605 120.907 21.3692 120.861 21.3462C120.45 21.0264 120.107 20.8893 119.741 20.7522C119.399 20.6151 119.033 20.478 118.622 20.1809C118.667 20.4551 119.124 21.5976 119.81 22.2603C120.107 22.5573 120.45 22.6716 120.701 22.6944C120.998 22.7172 121.272 22.5573 121.341 22.2831C121.638 23.1971 121.889 24.1797 122.095 25.1622C121.935 25.0023 121.775 24.888 121.729 24.8652C121.25 24.5225 120.838 24.3854 120.381 24.2483C119.97 24.1112 119.559 23.9741 119.033 23.6541C119.102 23.9741 119.696 25.2536 120.541 25.9848C120.907 26.3048 121.318 26.4189 121.615 26.4189C121.889 26.4419 122.141 26.3048 122.255 26.0991C122.438 27.0359 122.552 28.0185 122.643 29.001C122.575 28.9325 122.529 28.8639 122.506 28.8411C122.049 28.3613 121.615 28.1327 121.135 27.8585C120.701 27.6072 120.267 27.3558 119.764 26.8988C119.764 27.2873 120.153 28.8411 120.907 29.8236C121.25 30.2807 121.684 30.4634 122.004 30.5319C122.255 30.6005 122.506 30.5549 122.689 30.4178C122.712 31.4231 122.666 32.4743 122.552 33.5025C122.209 32.9084 121.844 32.5428 121.478 32.1315C121.112 31.7658 120.724 31.3775 120.381 30.7605C120.267 31.1489 120.221 32.8626 120.701 34.0737C120.93 34.6221 121.295 34.9421 121.615 35.1248C121.844 35.2391 122.095 35.2848 122.301 35.2163C122.118 36.153 121.889 37.1357 121.547 38.0724C121.524 38.1182 121.524 38.1409 121.501 38.1867C121.455 38.0496 121.432 37.9353 121.409 37.9125C121.158 37.2042 120.838 36.77 120.495 36.2673C120.176 35.8103 119.833 35.3534 119.581 34.6449C119.399 35.0334 119.079 36.8157 119.376 38.1639C119.513 38.7809 119.856 39.1692 120.153 39.4434C120.381 39.6263 120.678 39.6948 120.952 39.6263C120.541 40.5402 120.084 41.4086 119.536 42.1854C119.536 41.8884 119.467 41.637 119.444 41.5684C119.262 40.7916 118.964 40.266 118.667 39.7406C118.37 39.2377 118.073 38.7123 117.868 37.9353C117.639 38.3238 117.091 40.1519 117.251 41.5914C117.319 42.2539 117.639 42.711 117.936 43.008C118.165 43.2136 118.439 43.3279 118.713 43.3052C118.096 44.082 117.411 44.836 116.725 45.4758C116.771 45.1788 116.748 44.9504 116.748 44.8818C116.702 44.0592 116.52 43.4423 116.314 42.8253C116.108 42.2539 115.903 41.637 115.857 40.7916C115.537 41.1344 114.623 42.9166 114.463 44.4475C114.395 45.133 114.646 45.6814 114.897 46.0471C115.057 46.2756 115.286 46.4355 115.514 46.4812C114.829 47.0296 114.097 47.5095 113.389 47.9665C113.48 47.6466 113.503 47.3496 113.503 47.281C113.572 46.4127 113.435 45.75 113.298 45.0875C113.161 44.4475 113.024 43.785 113.069 42.9167C112.704 43.2366 111.47 44.9731 111.15 46.5498C110.99 47.2581 111.195 47.875 111.401 48.2635C111.515 48.492 111.698 48.6748 111.904 48.7662C110.99 49.246 110.053 49.6345 109.162 49.9773C109.413 49.5888 109.505 49.1547 109.527 49.0861C109.733 48.195 109.71 47.4867 109.665 46.7782C109.642 46.0927 109.596 45.3844 109.779 44.4933C109.345 44.7675 107.791 46.3669 107.197 47.9436C106.923 48.652 107.014 49.3146 107.174 49.7716C107.288 50.0916 107.517 50.3428 107.791 50.4571C104.752 51.4396 102.444 51.6225 102.444 51.6225C102.444 51.6225 100.136 51.4168 97.097 50.4571C97.3712 50.3428 97.5998 50.0916 97.7139 49.7716C97.874 49.3375 97.9654 48.6976 97.6912 47.9436C97.097 46.3441 95.5433 44.7675 95.109 44.4933C95.2919 45.3844 95.2691 46.0927 95.2234 46.7782C95.1776 47.4867 95.1548 48.195 95.3605 49.0861C95.3832 49.1547 95.4748 49.6117 95.726 49.9773C94.8578 49.6345 93.9209 49.246 92.984 48.7662C93.1897 48.6748 93.3725 48.492 93.4868 48.2635C93.6925 47.875 93.8751 47.281 93.738 46.5498C93.4183 44.9504 92.2072 43.2366 91.8187 42.9167C91.8644 43.785 91.7273 44.4475 91.5902 45.0875C91.4531 45.75 91.316 46.4127 91.3846 47.281C91.3846 47.3496 91.4074 47.6466 91.4989 47.9665C90.7904 47.5323 90.0593 47.0524 89.3738 46.4812C89.6023 46.4127 89.8307 46.2756 89.9908 46.0471C90.242 45.7044 90.4706 45.156 90.4249 44.4475C90.2878 42.8939 89.3738 41.1344 89.0311 40.7916C88.9625 41.6142 88.7797 42.2312 88.574 42.8253C88.3684 43.4423 88.1627 44.0362 88.1399 44.8818C88.1399 44.9274 88.117 45.1788 88.1627 45.4758C87.4772 44.836 86.7917 44.1048 86.1748 43.3052C86.449 43.3279 86.7232 43.2366 86.9516 43.008C87.2488 42.7338 87.5686 42.2769 87.6371 41.5914C87.7972 40.1061 87.2488 38.3238 87.0202 37.9353C86.8145 38.6894 86.5175 39.2377 86.2205 39.7406C85.9234 40.289 85.6264 40.7916 85.4435 41.5684C85.4207 41.6142 85.3522 41.8656 85.3522 42.1854C84.8266 41.4086 84.3697 40.5402 83.9354 39.6263C84.1868 39.6948 84.4838 39.6263 84.7352 39.4434C85.0322 39.215 85.375 38.8037 85.5121 38.1639C85.8092 36.7929 85.4893 35.0334 85.3064 34.6449C85.0322 35.3304 84.7124 35.7875 84.3925 36.2673C84.0497 36.7472 83.7298 37.1813 83.4785 37.9125C83.4785 37.9353 83.4328 38.0496 83.387 38.1867C83.3642 38.1409 83.3642 38.1182 83.3414 38.0724C83.0215 37.1357 82.7701 36.153 82.5874 35.2163C82.793 35.2848 83.0443 35.2619 83.2729 35.1248C83.5927 34.9421 83.9812 34.6221 84.1868 34.0737C84.6667 32.8626 84.6209 31.1489 84.5068 30.7605C84.164 31.3545 83.7755 31.743 83.41 32.1315C83.0215 32.5199 82.6559 32.8856 82.336 33.5025C82.2217 32.4743 82.1761 31.4231 82.1989 30.4178C82.3817 30.5549 82.633 30.6005 82.8844 30.5319C83.2043 30.4406 83.6384 30.2577 83.9812 29.8236C84.7352 28.8411 85.1237 27.2873 85.1237 26.8988C84.6439 27.3558 84.2096 27.6072 83.7527 27.8585C83.2957 28.1099 82.8616 28.3613 82.3817 28.8411C82.3319 28.8908 82.2861 28.9442 82.2446 29.001C82.3132 28.0185 82.4503 27.0359 82.633 26.0991C82.7473 26.3048 82.9987 26.4419 83.2729 26.4189C83.5699 26.3961 83.9812 26.3048 84.3467 25.9848C85.1465 25.2536 85.7863 23.9741 85.8548 23.6541C85.375 23.9741 84.9409 24.1112 84.5068 24.2483C84.0725 24.3854 83.6612 24.5453 83.1586 24.8652C83.1358 24.888 82.9529 25.0023 82.793 25.1622C83.0117 24.1943 83.2632 23.234 83.5471 22.2831C83.6156 22.5573 83.8669 22.7172 84.1868 22.6944C84.4382 22.6716 84.781 22.5573 85.078 22.2603C85.7407 21.5976 86.2205 20.4551 86.2661 20.1809C85.8548 20.478 85.5121 20.6151 85.1465 20.7522C84.781 20.9121 84.4382 21.0492 84.0269 21.3462C84.004 21.3692 83.8898 21.4605 83.7527 21.5976C83.9354 21.0264 84.1411 20.478 84.3467 19.9296C84.3697 19.9296 84.3925 19.9524 84.4153 19.9524C84.8951 19.9524 85.1465 19.3583 85.1923 19.2897C85.4207 18.8328 85.4893 18.4671 85.5578 18.0788C85.6264 17.7131 85.6949 17.3247 85.9006 16.8677C85.6264 16.959 84.6209 17.6445 84.0955 18.4671C83.8669 18.8328 83.8213 19.1756 83.8441 19.4268C83.8669 19.6325 83.9584 19.7925 84.1183 19.8839C83.707 20.8893 83.2957 22.0089 82.9301 23.1743C82.9072 23.06 82.8844 22.9686 82.8844 22.9458C82.7245 22.3745 82.4959 22.0089 82.2446 21.5976C82.016 21.2321 81.7876 20.8436 81.6047 20.2724C81.4448 20.5694 81.1249 21.9404 81.2849 23.0144C81.3535 23.4942 81.6047 23.837 81.8333 24.0197C82.0846 24.2483 82.4045 24.2939 82.6559 24.1112C82.3817 25.0937 82.1531 26.1219 81.9704 27.173C81.9247 27.0359 81.8561 26.9445 81.8561 26.9217C81.5362 26.3276 81.1934 25.9848 80.8279 25.5735C80.4851 25.208 80.1424 24.8423 79.7996 24.2483C79.6853 24.6138 79.6397 26.2133 80.0738 27.3786C80.2795 27.9042 80.6222 28.2012 80.9192 28.3841C81.2164 28.544 81.5362 28.544 81.7648 28.3613C81.6505 29.2524 81.5819 30.2121 81.5591 31.1489C81.422 30.9204 81.2392 30.7833 81.2164 30.7376C80.7136 30.2349 80.2567 30.0065 79.7311 29.7323C79.274 29.4809 78.7942 29.2295 78.2687 28.7496C78.2687 29.1609 78.7256 30.8061 79.5712 31.8344C79.9367 32.2914 80.3938 32.4971 80.7593 32.5656C81.0793 32.6342 81.3763 32.5428 81.5591 32.3372C81.5819 33.1826 81.6733 34.0737 81.7876 34.9649C81.5362 34.6907 81.1934 34.5308 81.1478 34.485C80.4851 34.1423 79.9367 34.028 79.3426 33.9138C78.7942 33.7995 78.2458 33.6852 77.5603 33.3654C77.6974 33.7767 78.6343 35.3076 79.7996 36.0845C80.3252 36.4502 80.8507 36.4958 81.2392 36.473C81.5591 36.4502 81.8333 36.2673 81.9704 36.0159C82.1531 36.8843 82.3817 37.7526 82.6787 38.6208C82.4273 38.4837 82.1989 38.4151 82.1531 38.3924C81.3991 38.1639 80.7821 38.1409 80.1652 38.1182C79.5712 38.0954 78.977 38.0954 78.2002 37.8667C78.4058 38.2553 79.7083 39.672 81.0335 40.289C81.6277 40.5632 82.1989 40.5174 82.6102 40.4261C82.8844 40.3575 83.09 40.1974 83.2271 39.969C83.6156 40.8602 84.0497 41.7055 84.5753 42.4596C84.3011 42.3683 84.0497 42.3455 84.004 42.3225C83.1814 42.2084 82.5416 42.2997 81.9019 42.391C81.2849 42.4826 80.668 42.5739 79.8224 42.4826C80.1196 42.8481 81.6962 44.1048 83.1814 44.5161C83.8441 44.6989 84.4153 44.5618 84.8266 44.379C85.1237 44.2419 85.3522 43.9907 85.4207 43.6935C85.9919 44.4247 86.6089 45.133 87.2716 45.75C86.9746 45.7044 86.7004 45.75 86.6546 45.75C85.7863 45.8185 85.1693 46.0699 84.5296 46.2984C83.9354 46.527 83.2957 46.7782 82.4273 46.8698C82.8158 47.1895 84.7124 48.0807 86.3576 48.1722C87.0887 48.195 87.6601 47.9208 88.0256 47.6466C88.3226 47.4181 88.4827 47.0982 88.4827 46.7782C89.191 47.3724 89.9678 47.898 90.6991 48.4006C90.4706 48.4464 90.2878 48.492 90.242 48.5149C89.3738 48.7892 88.7797 49.1547 88.1855 49.5432C87.6143 49.9087 87.0431 50.2972 86.152 50.5942C86.6089 50.8456 88.7569 51.3483 90.4477 51.0741C91.2017 50.937 91.7273 50.5485 92.0473 50.1829C92.2381 49.9511 92.343 49.6606 92.3443 49.3603C93.1897 49.8174 94.058 50.2287 94.8806 50.5714C94.5836 50.6628 94.355 50.7771 94.2865 50.7999C93.4183 51.2112 92.8699 51.6682 92.2985 52.1937C91.7731 52.6735 91.2247 53.1534 90.3563 53.5876C90.8819 53.7703 93.1669 53.976 94.8806 53.4505C95.6347 53.1991 96.1145 52.7193 96.3887 52.2852C96.5943 51.9424 96.6401 51.5539 96.5258 51.234C99.839 52.3993 102.398 52.6965 102.398 52.6965C102.398 52.6965 104.957 52.4223 108.271 51.234C108.156 51.5539 108.179 51.9652 108.408 52.2852C108.682 52.6965 109.139 53.1991 109.916 53.4505C111.63 53.9989 113.915 53.7703 114.44 53.5876C113.595 53.1534 113.024 52.6735 112.498 52.1937C111.927 51.691 111.401 51.234 110.51 50.7999C110.464 50.7771 110.236 50.6628 109.916 50.5714C110.738 50.2287 111.607 49.8402 112.452 49.3603C112.429 49.6345 112.544 49.9315 112.749 50.1829C113.046 50.5485 113.549 50.937 114.349 51.0741C116.04 51.3483 118.188 50.8456 118.645 50.5942C117.799 50.2972 117.182 49.9315 116.611 49.5432C116.017 49.1547 115.446 48.7662 114.554 48.5149C114.509 48.492 114.326 48.4464 114.097 48.4006C114.851 47.9208 115.605 47.3952 116.314 46.7782C116.314 47.0982 116.474 47.4181 116.771 47.6466C117.137 47.9208 117.685 48.195 118.439 48.1722C120.084 48.1036 121.958 47.2125 122.369 46.8698C121.524 46.7782 120.861 46.527 120.267 46.2984C119.627 46.0471 119.033 45.8185 118.142 45.75C118.096 45.75 117.822 45.7044 117.525 45.75C118.188 45.108 118.807 44.4208 119.376 43.6935C119.444 43.9907 119.65 44.2419 119.97 44.379C120.358 44.5618 120.93 44.6989 121.615 44.5161C123.123 44.1048 124.677 42.8709 124.974 42.4826C124.151 42.5739 123.512 42.4826 122.895 42.391C122.255 42.2997 121.615 42.2084 120.792 42.3225C120.747 42.3225 120.495 42.3455 120.221 42.4596C120.724 41.6828 121.158 40.8374 121.569 39.969C121.684 40.1747 121.912 40.3575 122.186 40.4261C122.575 40.5174 123.123 40.5632 123.763 40.289C125.111 39.672 126.368 38.2553 126.596 37.8667C125.842 38.0724 125.225 38.0954 124.631 38.1182C124.083 38.1409 123.512 38.1639 122.735 38.3924ZM97.9426 12.1377C97.8989 12.3124 97.7715 12.9667 97.7405 13.1843C97.7386 13.197 97.7508 13.2056 97.7626 13.2004C98.0101 13.0968 99.996 12.2976 102.581 12.2976C105.186 12.2976 107.152 13.0956 107.399 13.2004C107.411 13.2056 107.423 13.1968 107.421 13.184C107.39 12.9665 107.263 12.3124 107.22 12.1377C107.128 11.7264 107.082 11.2923 107.082 10.8353C107.062 7.98345 108.87 4.76588 109.847 3.52273C109.882 3.47783 109.824 3.42111 109.78 3.4571C108.828 4.23034 106.598 6.12986 106.084 7.34542C106.083 7.34756 106.083 7.34986 106.083 7.35217C106.083 7.35448 106.083 7.35674 106.084 7.35881C106.085 7.36087 106.087 7.36269 106.089 7.36413C106.091 7.36558 106.093 7.36662 106.095 7.36718C106.335 7.43607 106.555 7.56769 106.753 7.74181C106.756 7.74427 106.757 7.74758 106.758 7.75123C106.759 7.75488 106.758 7.75867 106.757 7.76203C106.352 8.59937 106.125 9.54793 105.966 10.4747C105.965 10.477 105.965 10.4792 105.963 10.4811C105.962 10.483 105.96 10.4846 105.958 10.4859C105.957 10.4871 105.954 10.4879 105.952 10.4882C105.95 10.4885 105.947 10.4884 105.945 10.4877C105.448 10.3527 104.951 10.2403 104.409 10.1726L104.158 10.127C103.883 10.0585 103.678 9.8756 103.609 9.6014C103.45 8.85095 104.535 8.50802 103.645 7.55912C103.639 7.55175 103.638 7.53993 103.646 7.53393C103.85 7.38192 104.21 7.23248 104.436 7.18313C104.446 7.18107 104.451 7.17062 104.446 7.16119C103.167 4.70676 102.857 2.16647 102.576 0.0064645C102.573 -0.0127295 102.545 -0.00930198 102.543 0.00972062C102.163 2.94846 101.858 4.80205 100.671 7.16033C100.666 7.16993 100.671 7.18107 100.681 7.18347C100.906 7.23282 101.267 7.38226 101.47 7.53393C101.478 7.53993 101.478 7.55175 101.471 7.55912C100.581 8.50802 101.644 8.85095 101.507 9.6014C101.461 9.8756 101.233 10.0812 100.959 10.127L100.707 10.1726C100.188 10.2405 99.6902 10.3529 99.171 10.4879C99.1688 10.4885 99.1665 10.4887 99.1642 10.4883C99.162 10.488 99.1598 10.4872 99.1579 10.4859C99.156 10.4847 99.1543 10.4831 99.1531 10.4812C99.1518 10.4793 99.151 10.4771 99.1506 10.4749C98.9914 9.54776 98.7645 8.59902 98.359 7.76152C98.3575 7.75828 98.357 7.75465 98.3576 7.75112C98.3582 7.74759 98.3599 7.74433 98.3624 7.74181C98.5405 7.56803 98.7811 7.45698 99.0231 7.36804C99.0252 7.36733 99.0271 7.36621 99.0288 7.36474C99.0304 7.36327 99.0317 7.36148 99.0327 7.35948C99.0336 7.35748 99.0342 7.35531 99.0342 7.3531C99.0343 7.35089 99.034 7.34868 99.0332 7.34662C98.5501 6.11752 96.2549 4.18921 95.3106 3.43208C95.2665 3.39677 95.2088 3.45367 95.2434 3.49823C96.2043 4.72321 98.054 7.96442 98.0339 10.8353C98.0797 11.2923 98.0339 11.7264 97.9426 12.1377Z" fill="white"/>
</g>
</g>
</g>
<defs>
<clipPath id="clip0_1_1256">
<rect width="182" height="53.8" fill="white"/>
</clipPath>
<clipPath id="clip1_1_1256">
<rect width="182" height="53.8117" fill="white" transform="translate(0 -0.00585938)"/>
</clipPath>
</defs>
</svg>
