<svg width="118" height="20" viewBox="0 0 118 20" fill="none" xmlns="http://www.w3.org/2000/svg">
<path d="M13.122 5.83206C13.122 6.78606 12.897 7.68606 12.447 8.53206C11.997 9.37806 11.277 10.0711 10.287 10.6111C9.29701 11.1331 8.02801 11.3941 6.48001 11.3941H3.07801V19.0081H6.18398e-06V0.243055H6.48001C7.92001 0.243055 9.13501 0.495055 10.125 0.999055C11.133 1.48506 11.88 2.15106 12.366 2.99706C12.87 3.84306 13.122 4.78806 13.122 5.83206ZM6.48001 8.88306C7.65001 8.88306 8.52301 8.62206 9.09901 8.10006C9.67501 7.56006 9.96301 6.80406 9.96301 5.83206C9.96301 3.78006 8.80201 2.75406 6.48001 2.75406H3.07801V8.88306H6.48001ZM19.1086 0.243055V12.2041C19.1086 13.6261 19.4776 14.6971 20.2156 15.4171C20.9716 16.1371 22.0156 16.4971 23.3476 16.4971C24.6976 16.4971 25.7416 16.1371 26.4796 15.4171C27.2356 14.6971 27.6136 13.6261 27.6136 12.2041V0.243055H30.6916V12.1501C30.6916 13.6801 30.3586 14.9761 29.6926 16.0381C29.0266 17.1001 28.1356 17.8921 27.0196 18.4141C25.9036 18.9361 24.6706 19.1971 23.3206 19.1971C21.9706 19.1971 20.7376 18.9361 19.6216 18.4141C18.5236 17.8921 17.6506 17.1001 17.0026 16.0381C16.3546 14.9761 16.0306 13.6801 16.0306 12.1501V0.243055H19.1086ZM47.8212 5.83206C47.8212 6.78606 47.5962 7.68606 47.1462 8.53206C46.6962 9.37806 45.9762 10.0711 44.9862 10.6111C43.9962 11.1331 42.7272 11.3941 41.1792 11.3941H37.7772V19.0081H34.6992V0.243055H41.1792C42.6192 0.243055 43.8342 0.495055 44.8242 0.999055C45.8322 1.48506 46.5792 2.15106 47.0652 2.99706C47.5692 3.84306 47.8212 4.78806 47.8212 5.83206ZM41.1792 8.88306C42.3492 8.88306 43.2222 8.62206 43.7982 8.10006C44.3742 7.56006 44.6622 6.80406 44.6622 5.83206C44.6622 3.78006 43.5012 2.75406 41.1792 2.75406H37.7772V8.88306H41.1792ZM66.1738 19.0081H63.0958L53.8348 4.99506V19.0081H50.7568V0.216056H53.8348L63.0958 14.2021V0.216056H66.1738V19.0081ZM81.5288 15.1741H73.6718L72.3218 19.0081H69.1088L75.8318 0.216056H79.3958L86.1188 19.0081H82.8788L81.5288 15.1741ZM80.6648 12.6631L77.6138 3.94206L74.5358 12.6631H80.6648ZM102.164 5.83206C102.164 6.78606 101.939 7.68606 101.489 8.53206C101.039 9.37806 100.319 10.0711 99.329 10.6111C98.339 11.1331 97.07 11.3941 95.522 11.3941H92.12V19.0081H89.042V0.243055H95.522C96.962 0.243055 98.177 0.495055 99.167 0.999055C100.175 1.48506 100.922 2.15106 101.408 2.99706C101.912 3.84306 102.164 4.78806 102.164 5.83206ZM95.522 8.88306C96.692 8.88306 97.565 8.62206 98.141 8.10006C98.717 7.56006 99.005 6.80406 99.005 5.83206C99.005 3.78006 97.844 2.75406 95.522 2.75406H92.12V8.88306H95.522ZM111.283 19.1971C110.023 19.1971 108.889 18.9811 107.881 18.5491C106.873 18.0991 106.081 17.4691 105.505 16.6591C104.929 15.8491 104.641 14.9041 104.641 13.8241H107.935C108.007 14.6341 108.322 15.3001 108.88 15.8221C109.456 16.3441 110.257 16.6051 111.283 16.6051C112.345 16.6051 113.173 16.3531 113.767 15.8491C114.361 15.3271 114.658 14.6611 114.658 13.8511C114.658 13.2211 114.469 12.7081 114.091 12.3121C113.731 11.9161 113.272 11.6101 112.714 11.3941C112.174 11.1781 111.418 10.9441 110.446 10.6921C109.222 10.3681 108.223 10.0441 107.449 9.72006C106.693 9.37806 106.045 8.85606 105.505 8.15406C104.965 7.45206 104.695 6.51606 104.695 5.34606C104.695 4.26606 104.965 3.32106 105.505 2.51106C106.045 1.70106 106.801 1.08006 107.773 0.648056C108.745 0.216056 109.87 5.51343e-05 111.148 5.51343e-05C112.966 5.51343e-05 114.451 0.459055 115.603 1.37706C116.773 2.27706 117.421 3.51906 117.547 5.10306H114.145C114.091 4.41906 113.767 3.83406 113.173 3.34806C112.579 2.86206 111.796 2.61906 110.824 2.61906C109.942 2.61906 109.222 2.84406 108.664 3.29406C108.106 3.74406 107.827 4.39206 107.827 5.23806C107.827 5.81406 107.998 6.29106 108.34 6.66906C108.7 7.02906 109.15 7.31706 109.69 7.53306C110.23 7.74906 110.968 7.98306 111.904 8.23506C113.146 8.57706 114.154 8.91906 114.928 9.26106C115.72 9.60306 116.386 10.1341 116.926 10.8541C117.484 11.5561 117.763 12.5011 117.763 13.6891C117.763 14.6431 117.502 15.5431 116.98 16.3891C116.476 17.2351 115.729 17.9191 114.739 18.4411C113.767 18.9451 112.615 19.1971 111.283 19.1971Z" fill="white"/>
</svg>
