<svg width="64" height="23" viewBox="0 0 64 23" fill="none" xmlns="http://www.w3.org/2000/svg">
<path d="M8.494 22.289C6.90267 22.289 5.47666 22.0307 4.216 21.514C2.95533 20.9974 1.94266 20.2327 1.178 19.22C0.433998 18.2074 0.0413315 16.988 -1.85519e-06 15.562H5.642C5.72467 16.368 6.00367 16.988 6.479 17.422C6.95433 17.8354 7.57433 18.042 8.339 18.042C9.12433 18.042 9.74433 17.8664 10.199 17.515C10.6537 17.143 10.881 16.6367 10.881 15.996C10.881 15.4587 10.695 15.0144 10.323 14.663C9.97167 14.3117 9.52733 14.0224 8.99 13.795C8.47333 13.5677 7.72933 13.3094 6.758 13.02C5.35266 12.586 4.20566 12.152 3.317 11.718C2.42833 11.284 1.66366 10.6434 1.023 9.79602C0.382331 8.94869 0.0619982 7.84302 0.0619982 6.47902C0.0619982 4.45369 0.795665 2.87269 2.263 1.73602C3.73033 0.578688 5.642 2.11e-05 7.998 2.11e-05C10.3953 2.11e-05 12.3277 0.578688 13.795 1.73602C15.2623 2.87269 16.0477 4.46402 16.151 6.51002H10.416C10.3747 5.80735 10.1163 5.25969 9.641 4.86702C9.16567 4.45369 8.556 4.24702 7.812 4.24702C7.17133 4.24702 6.65467 4.42269 6.262 4.77402C5.86933 5.10469 5.673 5.59035 5.673 6.23102C5.673 6.93369 6.00366 7.48135 6.665 7.87402C7.32633 8.26669 8.35967 8.69035 9.765 9.14502C11.1703 9.62035 12.307 10.075 13.175 10.509C14.0637 10.943 14.8283 11.5734 15.469 12.4C16.1097 13.2267 16.43 14.291 16.43 15.593C16.43 16.833 16.1097 17.9594 15.469 18.972C14.849 19.9847 13.9397 20.7907 12.741 21.39C11.5423 21.9894 10.1267 22.289 8.494 22.289ZM44.3373 0.310021V22.072H39.0363V9.02102L34.1693 22.072H29.8913L24.9933 8.99002V22.072H19.6923V0.310021H25.9543L32.0613 15.376L38.1063 0.310021H44.3373ZM63.8043 0.310021V4.55702H58.0383V22.072H52.7373V4.55702H46.9713V0.310021H63.8043Z" fill="white"/>
</svg>
